<svg width="160" height="28" viewBox="0 0 160 28" fill="none" xmlns="http://www.w3.org/2000/svg">
<g id="Snapbooks Logo">
<g id="Snapbooks Logo_2">
<path d="M152.747 22.8373C151.671 22.8373 150.675 22.7357 149.761 22.5325C148.867 22.3294 148.085 22.0145 147.415 21.5879C146.744 21.1612 146.216 20.6229 145.83 19.9728C145.464 19.3024 145.261 18.5101 145.22 17.5959L149.243 16.6817C149.324 17.2099 149.517 17.6771 149.822 18.0834C150.127 18.4897 150.533 18.8046 151.041 19.0281C151.569 19.2313 152.209 19.3328 152.961 19.3328C153.692 19.3328 154.281 19.2211 154.728 18.9976C155.195 18.7742 155.429 18.4186 155.429 17.9311C155.429 17.6466 155.317 17.413 155.094 17.2302C154.891 17.0473 154.555 16.8848 154.088 16.7426C153.621 16.5801 152.991 16.4074 152.199 16.2246C151.285 16.0011 150.421 15.7675 149.609 15.5237C148.796 15.2799 148.065 14.9752 147.415 14.6095C146.785 14.2438 146.287 13.7765 145.921 13.2077C145.576 12.6389 145.403 11.9177 145.403 11.0441C145.403 9.9877 145.688 9.0735 146.257 8.30151C146.825 7.52952 147.638 6.94037 148.694 6.53407C149.751 6.10744 150.99 5.89413 152.412 5.89413C153.712 5.89413 154.88 6.07697 155.917 6.44265C156.973 6.80832 157.826 7.37716 158.476 8.14915C159.126 8.92114 159.462 9.90644 159.482 11.1051L155.399 11.9583C155.378 11.4301 155.236 10.9832 154.972 10.6175C154.728 10.2315 154.373 9.94707 153.905 9.76423C153.458 9.56108 152.92 9.4595 152.29 9.4595C151.559 9.4595 150.99 9.58139 150.584 9.82518C150.177 10.069 149.974 10.394 149.974 10.8003C149.974 11.1051 150.106 11.3692 150.37 11.5926C150.635 11.7958 151.021 11.9786 151.528 12.1411C152.057 12.2834 152.707 12.4357 153.479 12.5982C154.23 12.7608 154.982 12.9538 155.734 13.1772C156.506 13.3804 157.217 13.6648 157.867 14.0305C158.517 14.3962 159.035 14.8837 159.421 15.4932C159.807 16.0824 160 16.8442 160 17.7787C160 18.7945 159.716 19.6884 159.147 20.4603C158.598 21.2323 157.786 21.8215 156.709 22.2278C155.632 22.6341 154.312 22.8373 152.747 22.8373Z" fill="#28A745"/>
<path d="M128.81 22.4106V0.805084H133.625V12.4763C134.254 12.07 134.823 11.6332 135.331 11.166C135.839 10.6784 136.286 10.1705 136.672 9.64233C137.058 9.11412 137.383 8.57576 137.647 8.02724C137.932 7.45841 138.175 6.88958 138.378 6.32074H144.016C143.772 7.13336 143.427 7.92567 142.98 8.69766C142.553 9.44933 142.015 10.1604 141.365 10.8308C140.735 11.4809 139.994 12.0599 139.14 12.5678C138.287 13.0756 137.332 13.4616 136.276 13.7257V14.0914C137.637 13.8679 138.744 13.8578 139.597 14.0609C140.471 14.2641 141.162 14.6196 141.67 15.1275C142.177 15.6151 142.563 16.2144 142.828 16.9254C143.112 17.6365 143.335 18.378 143.498 19.15L144.168 22.4106H138.836L138.531 20.247C138.389 19.4344 138.216 18.7132 138.013 18.0834C137.83 17.4536 137.505 16.9559 137.038 16.5902C136.591 16.2042 135.92 16.0112 135.026 16.0112H133.625V22.4106H128.81Z" fill="#28A745"/>
<path d="M118.36 22.8373C116.776 22.8373 115.374 22.5325 114.155 21.9231C112.936 21.2933 111.981 20.3486 111.29 19.089C110.6 17.8295 110.254 16.255 110.254 14.3657C110.254 12.4357 110.61 10.8511 111.321 9.61186C112.032 8.3523 112.997 7.41779 114.216 6.80832C115.455 6.19886 116.857 5.89413 118.421 5.89413C120.026 5.89413 121.438 6.20902 122.657 6.8388C123.876 7.44826 124.821 8.38278 125.491 9.64234C126.182 10.8816 126.527 12.456 126.527 14.3657C126.527 16.316 126.172 17.9209 125.461 19.1805C124.749 20.44 123.774 21.3644 122.535 21.9535C121.316 22.5427 119.925 22.8373 118.36 22.8373ZM118.513 19.2414C119.183 19.2414 119.742 19.0687 120.189 18.7234C120.636 18.378 120.971 17.86 121.194 17.1692C121.438 16.4785 121.56 15.6354 121.56 14.6399C121.56 13.5835 121.428 12.6897 121.164 11.9583C120.92 11.2269 120.554 10.6683 120.067 10.2823C119.599 9.89628 119 9.70328 118.269 9.70328C117.619 9.70328 117.06 9.87597 116.593 10.2213C116.146 10.5667 115.8 11.0847 115.557 11.7755C115.333 12.4662 115.221 13.3093 115.221 14.3047C115.221 15.9097 115.506 17.1388 116.075 17.992C116.664 18.8249 117.477 19.2414 118.513 19.2414Z" fill="#28A745"/>
<path d="M100.475 22.8373C98.8904 22.8373 97.4887 22.5325 96.2698 21.9231C95.0508 21.2933 94.096 20.3486 93.4053 19.089C92.7145 17.8295 92.3692 16.255 92.3692 14.3657C92.3692 12.4357 92.7247 10.8511 93.4357 9.61186C94.1468 8.3523 95.1118 7.41779 96.3307 6.80832C97.5699 6.19886 98.9717 5.89413 100.536 5.89413C102.141 5.89413 103.553 6.20902 104.772 6.8388C105.991 7.44826 106.935 8.38278 107.606 9.64234C108.297 10.8816 108.642 12.456 108.642 14.3657C108.642 16.316 108.286 17.9209 107.575 19.1805C106.864 20.44 105.889 21.3644 104.65 21.9535C103.431 22.5427 102.039 22.8373 100.475 22.8373ZM100.627 19.2414C101.298 19.2414 101.857 19.0687 102.303 18.7234C102.75 18.378 103.086 17.86 103.309 17.1692C103.553 16.4785 103.675 15.6354 103.675 14.6399C103.675 13.5835 103.543 12.6897 103.279 11.9583C103.035 11.2269 102.669 10.6683 102.182 10.2823C101.714 9.89628 101.115 9.70328 100.384 9.70328C99.7335 9.70328 99.1749 9.87597 98.7076 10.2213C98.2607 10.5667 97.9153 11.0847 97.6715 11.7755C97.4481 12.4662 97.3363 13.3093 97.3363 14.3047C97.3363 15.9097 97.6207 17.1388 98.1896 17.992C98.7787 18.8249 99.5913 19.2414 100.627 19.2414Z" fill="#28A745"/>
<path d="M73.5509 22.4106V2.29831H81.9006C83.1398 2.29831 84.247 2.41004 85.2222 2.63351C86.2176 2.85698 87.0607 3.19219 87.7515 3.63913C88.4422 4.06575 88.9704 4.61427 89.3361 5.28468C89.7018 5.93478 89.8846 6.70677 89.8846 7.60065C89.8846 8.41327 89.7119 9.13447 89.3665 9.76425C89.0415 10.3737 88.5133 10.8714 87.7819 11.2574C87.0709 11.6434 86.1161 11.8872 84.9174 11.9888V12.3849C86.9287 12.4865 88.3914 12.9538 89.3056 13.7867C90.2401 14.6197 90.7074 15.737 90.7074 17.1388C90.7074 18.3171 90.3925 19.2922 89.7627 20.0642C89.1532 20.8362 88.2492 21.4253 87.0506 21.8317C85.8723 22.2177 84.4096 22.4106 82.6624 22.4106H73.5509ZM78.3657 18.4796H82.4491C83.5868 18.4796 84.44 18.2968 85.0089 17.9311C85.598 17.5654 85.8926 17.0169 85.8926 16.2855C85.8926 15.4729 85.5574 14.8736 84.887 14.4876C84.2166 14.0813 83.2008 13.8781 81.8397 13.8781H78.3657V18.4796ZM78.3657 10.6784H81.2607C82.5405 10.6784 83.4954 10.4855 84.1251 10.0995C84.7752 9.71346 85.1003 9.13447 85.1003 8.36248C85.1003 7.63112 84.8057 7.09276 84.2166 6.7474C83.6477 6.38172 82.7742 6.19888 81.5959 6.19888H78.3657V10.6784Z" fill="#28A745"/>
<path d="M54.8587 27.1949V6.32075H59.0335L59.064 11.1051L59.4296 11.1355C59.6328 9.97754 59.9579 9.01256 60.4048 8.24057C60.8721 7.44826 61.4612 6.85911 62.1722 6.47312C62.9036 6.08712 63.7569 5.89413 64.732 5.89413C66.0525 5.89413 67.18 6.22933 68.1145 6.89974C69.0694 7.54984 69.7906 8.50467 70.2781 9.76423C70.786 11.0238 71.04 12.5678 71.04 14.3962C71.04 16.1839 70.786 17.7076 70.2781 18.9672C69.7906 20.2267 69.0795 21.1917 68.145 21.8621C67.2308 22.5122 66.1236 22.8373 64.8234 22.8373C63.8889 22.8373 63.0661 22.6544 62.3551 22.2887C61.6644 21.9027 61.0854 21.3339 60.6181 20.5822C60.1509 19.8306 59.7953 18.8859 59.5515 17.7482H59.1554C59.257 18.3171 59.3484 18.9062 59.4296 19.5157C59.5312 20.1251 59.6125 20.7244 59.6734 21.3136C59.7344 21.8824 59.7649 22.4309 59.7649 22.9591V27.1949H54.8587ZM62.995 18.8757C63.6654 18.8757 64.214 18.6827 64.6406 18.2967C65.0875 17.8904 65.4227 17.3622 65.6462 16.7121C65.8697 16.0417 65.9814 15.3002 65.9814 14.4876C65.9814 13.614 65.8595 12.8522 65.6157 12.2021C65.3922 11.5317 65.0469 11.0035 64.5796 10.6175C64.1327 10.2112 63.5943 10.008 62.9646 10.008C62.4567 10.008 61.9996 10.1198 61.5933 10.3432C61.2073 10.5667 60.8721 10.8714 60.5876 11.2574C60.3235 11.6434 60.1102 12.1005 59.9477 12.6287C59.8055 13.1569 59.7344 13.7258 59.7344 14.3352V14.7314C59.7344 15.2393 59.7852 15.7065 59.8867 16.1331C60.0086 16.5598 60.1712 16.9458 60.3743 17.2911C60.5775 17.6162 60.8111 17.9006 61.0752 18.1444C61.3596 18.3882 61.6644 18.571 61.9894 18.6929C62.3144 18.8148 62.6497 18.8757 62.995 18.8757Z" fill="#28A745"/>
<path d="M41.621 22.8373C40.7677 22.8373 39.9856 22.6849 39.2745 22.3802C38.5635 22.0551 37.9845 21.5675 37.5375 20.9174C37.1109 20.247 36.8976 19.3938 36.8976 18.3577C36.8976 17.4029 37.0804 16.6207 37.4461 16.0112C37.8321 15.4018 38.3502 14.9142 39.0003 14.5485C39.6707 14.1829 40.4325 13.8984 41.2857 13.6953C42.139 13.4718 43.043 13.2788 43.9979 13.1163C44.8511 12.9538 45.5114 12.8217 45.9786 12.7201C46.4662 12.6186 46.8014 12.4763 46.9842 12.2935C47.1874 12.1107 47.289 11.8567 47.289 11.5317C47.289 10.9832 47.0858 10.5464 46.6795 10.2213C46.2732 9.87597 45.6942 9.70328 44.9425 9.70328C44.4347 9.70328 43.9572 9.7947 43.5103 9.97754C43.0634 10.1604 42.6875 10.455 42.3828 10.8613C42.0781 11.2473 41.8952 11.7856 41.8343 12.4763L37.4766 11.745C37.5782 10.648 37.8524 9.7236 38.2994 8.97193C38.7463 8.22025 39.3253 7.62095 40.0363 7.174C40.7474 6.72706 41.5397 6.40202 42.4133 6.19886C43.2868 5.9957 44.1807 5.89413 45.0949 5.89413C46.7201 5.89413 48.0406 6.17854 49.0564 6.74738C50.0925 7.31621 50.8543 8.15931 51.3419 9.27666C51.8498 10.3737 52.1038 11.745 52.1038 13.3905V16.0722C52.1038 16.7832 52.1038 17.4943 52.1038 18.2053C52.1241 18.896 52.1444 19.5969 52.1647 20.308C52.2053 20.9987 52.2358 21.6996 52.2561 22.4106H47.9594C47.9391 21.8012 47.9086 21.1409 47.868 20.4299C47.8273 19.7188 47.7969 18.9773 47.7765 18.2053H47.4109C47.2483 19.0586 46.903 19.8407 46.3748 20.5518C45.8466 21.2425 45.1762 21.8012 44.3635 22.2278C43.5712 22.6341 42.657 22.8373 41.621 22.8373ZM43.7236 19.3024C44.0893 19.3024 44.4651 19.2414 44.8511 19.1195C45.2371 18.9773 45.6028 18.7742 45.9482 18.5101C46.2935 18.2256 46.5881 17.86 46.8319 17.413C47.096 16.9458 47.2585 16.3972 47.3195 15.7675V14.3047L48.0508 14.3352C47.7867 14.579 47.4413 14.7822 47.0147 14.9447C46.6084 15.1072 46.1716 15.2291 45.7044 15.3104C45.2371 15.3916 44.7699 15.483 44.3026 15.5846C43.8353 15.6659 43.4087 15.7878 43.0227 15.9503C42.6367 16.0925 42.3218 16.2855 42.078 16.5293C41.8546 16.7731 41.7428 17.1184 41.7428 17.5654C41.7428 18.1139 41.9358 18.5405 42.3218 18.8453C42.7078 19.15 43.1751 19.3024 43.7236 19.3024Z" fill="#28A745"/>
<path d="M19.3561 22.4106V6.32075H23.4091L23.4396 12.0802H23.8662C24.049 10.6784 24.3538 9.52044 24.7804 8.60625C25.2273 7.69205 25.8266 7.01148 26.5783 6.56454C27.33 6.1176 28.2543 5.89413 29.3514 5.89413C31.1594 5.89413 32.5206 6.51375 33.4348 7.753C34.3693 8.97192 34.8365 10.8613 34.8365 13.421V22.4106H29.8999V14C29.8999 12.6592 29.6967 11.6739 29.2904 11.0441C28.9044 10.394 28.3051 10.069 27.4925 10.069C26.8221 10.069 26.2431 10.2924 25.7555 10.7394C25.2679 11.1863 24.8921 11.8466 24.628 12.7201C24.3842 13.5937 24.2623 14.6907 24.2623 16.0112V22.4106H19.3561Z" fill="#28A745"/>
<path d="M8.62393 22.8373C7.26279 22.8373 6.04386 22.6951 4.96714 22.4107C3.91073 22.1059 3.01685 21.6793 2.28549 21.1308C1.55414 20.562 0.995459 19.8712 0.609465 19.0586C0.22347 18.2257 0.0203155 17.2912 0 16.2551L4.44909 15.0666C4.48972 15.9605 4.70304 16.702 5.08903 17.2912C5.47503 17.86 6.00323 18.2866 6.67364 18.571C7.34405 18.8351 8.08557 18.9672 8.89819 18.9672C9.60923 18.9672 10.2187 18.8758 10.7266 18.6929C11.2345 18.5101 11.6306 18.2765 11.915 17.992C12.1995 17.6873 12.3417 17.3419 12.3417 16.956C12.3417 16.4887 12.1487 16.1027 11.7627 15.798C11.397 15.4932 10.8891 15.2291 10.239 15.0057C9.58891 14.7822 8.83724 14.5689 7.98399 14.3657C7.04948 14.1219 6.12512 13.8578 5.21093 13.5734C4.31704 13.2687 3.49427 12.8929 2.74259 12.4459C1.99092 11.999 1.39161 11.42 0.944671 10.7089C0.49773 9.97758 0.274259 9.07354 0.274259 7.99682C0.274259 6.73726 0.599307 5.65038 1.2494 4.73618C1.8995 3.82199 2.8137 3.1211 3.992 2.63353C5.19061 2.12564 6.60254 1.8717 8.22778 1.8717C9.89365 1.8717 11.3462 2.1358 12.5855 2.664C13.8247 3.1922 14.7795 3.94388 15.4499 4.91902C16.1203 5.89417 16.4251 7.06231 16.3641 8.42345L11.915 9.39859C11.9354 8.78912 11.8643 8.26092 11.7017 7.81398C11.5392 7.34672 11.2954 6.96073 10.9704 6.656C10.6453 6.35127 10.2492 6.11764 9.78191 5.95511C9.31466 5.77227 8.76614 5.68085 8.13636 5.68085C7.44563 5.68085 6.86664 5.77227 6.39938 5.95511C5.93213 6.11764 5.5766 6.35127 5.33282 6.656C5.08903 6.94041 4.96714 7.26546 4.96714 7.63114C4.96714 8.07808 5.14998 8.45392 5.51566 8.75865C5.90165 9.06338 6.4197 9.32748 7.06979 9.55095C7.71989 9.75411 8.47156 9.95726 9.32481 10.1604C10.1984 10.3839 11.0821 10.6378 11.976 10.9223C12.8902 11.2067 13.7333 11.5825 14.5053 12.0498C15.2976 12.517 15.9274 13.1265 16.3946 13.8782C16.8822 14.6298 17.126 15.5847 17.126 16.7426C17.126 18.0428 16.7806 19.15 16.0899 20.0642C15.3991 20.9581 14.4138 21.6488 13.134 22.1364C11.8744 22.6037 10.3711 22.8373 8.62393 22.8373Z" fill="#28A745"/>
</g>
</g>
</svg>
